<svg width="120" height="27" viewBox="0 0 120 27" fill="none" xmlns="http://www.w3.org/2000/svg">
<path d="M3.12 1.16V0.799998H9.528V21.248C9.528 23.144 9.144 24.416 8.376 25.064C7.608 25.688 6.444 26 4.884 26C3.348 26 1.98 25.772 0.78 25.316L0.888 25.028C2.04 25.484 3.228 25.712 4.452 25.712C5.268 25.712 5.808 25.364 6.072 24.668C6.36 23.972 6.504 22.844 6.504 21.284V1.16H3.12ZM12.8558 26H12.4238L23.1878 0.799998L23.5838 0.619998L32.6558 26H29.5958L26.7878 18.08H16.2758L12.8558 26ZM22.0718 4.688L16.4198 17.72H26.6798L22.0718 4.688ZM36.1947 26H35.7267V0.799998H36.9507L51.9267 24.092V0.799998H52.3947V26H49.7667L36.1947 5.12V26ZM56.175 14.012C56.175 9.644 57.231 6.332 59.343 4.076C61.479 1.796 64.215 0.655998 67.551 0.655998C70.887 0.655998 73.539 1.64 75.507 3.608C77.499 5.576 78.495 8.72 78.495 13.04C78.495 17.36 77.439 20.624 75.327 22.832C73.215 25.04 70.395 26.144 66.867 26.144C63.819 26.144 61.323 25.268 59.379 23.516C58.371 22.604 57.579 21.344 57.003 19.736C56.451 18.104 56.175 16.196 56.175 14.012ZM67.443 1.016C65.019 1.016 63.027 2.096 61.467 4.256C59.931 6.416 59.163 9.584 59.163 13.76C59.163 17.936 59.895 20.984 61.359 22.904C62.823 24.824 64.767 25.784 67.191 25.784C69.639 25.784 71.631 24.704 73.167 22.544C74.727 20.36 75.507 17.204 75.507 13.076C75.507 8.924 74.763 5.876 73.275 3.932C71.811 1.988 69.867 1.016 67.443 1.016ZM82.4536 1.088C85.2376 0.895998 87.6976 0.799998 89.8336 0.799998C95.7616 0.799998 98.7256 2.78 98.7256 6.74C98.7256 8.42 98.3176 9.92 97.5016 11.24C96.6856 12.56 95.2816 13.436 93.2896 13.868L100.49 26H97.1416L90.0856 14.084H85.4416V26H82.4536V1.088ZM89.8336 1.16C88.4416 1.16 86.9776 1.244 85.4416 1.412V13.724H90.7696C94.1536 13.58 95.8456 11.276 95.8456 6.812C95.8456 4.988 95.3416 3.596 94.3336 2.636C93.3256 1.652 91.8256 1.16 89.8336 1.16ZM118.403 0.799998V1.16H107.063V11.96H117.575V12.32H107.063V25.64H119.195V26H104.075V0.799998H118.403Z" fill="#1E1B1B"/>
</svg>
